<!-- Generated by IcoMoon.io -->
<svg version="1.1" xmlns="http://www.w3.org/2000/svg" width="32" height="32" viewBox="0 0 32 32">
<path d="M26.667 9.333h-5.333v-2.667l-2.667-2.667h-5.333l-2.667 2.667v2.667h-5.333c-1.467 0-2.667 1.2-2.667 2.667v6.667c0 1 0.533 1.84 1.333 2.307v4.36c0 1.48 1.187 2.667 2.667 2.667h18.667c1.48 0 2.667-1.187 2.667-2.667v-4.373c0.787-0.467 1.333-1.32 1.333-2.293v-6.667c0-1.467-1.2-2.667-2.667-2.667zM13.333 6.667h5.333v2.667h-5.333v-2.667zM5.333 12h21.333v6.667h-6.667v-4h-8v4h-6.667v-6.667zM17.333 20h-2.667v-2.667h2.667v2.667zM25.333 25.333h-18.667v-4h5.333v1.333h8v-1.333h5.333v4z"></path>
</svg>
